<?xml version="1.0" encoding="UTF-8"?>
<!DOCTYPE svg PUBLIC "-//W3C//DTD SVG 1.1//EN" "http://www.w3.org/Graphics/SVG/1.1/DTD/svg11.dtd">
<svg xmlns="http://www.w3.org/2000/svg" version="1.1" width="128px" height="128px" style="shape-rendering:geometricPrecision; text-rendering:geometricPrecision; image-rendering:optimizeQuality; fill-rule:evenodd; clip-rule:evenodd" xmlns:xlink="http://www.w3.org/1999/xlink">
<g><path style="opacity:0.996" fill="#fde7ca" d="M 4.5,-0.5 C 22.5,-0.5 40.5,-0.5 58.5,-0.5C 58.5,3.83333 58.5,8.16667 58.5,12.5C 72.0105,12.1711 85.3438,12.5044 98.5,13.5C 82.8298,13.3334 67.1631,13.5001 51.5,14C 49.6857,20.0265 52.019,22.5265 58.5,21.5C 58.5,39.1667 58.5,56.8333 58.5,74.5C 33.3409,73.3425 23.0075,85.3425 27.5,110.5C 19.7767,110.8 12.1101,110.467 4.5,109.5C 3.17401,72.7666 3.17401,36.0999 4.5,-0.5 Z"/></g>
<g><path style="opacity:1" fill="#fed299" d="M 58.5,-0.5 C 76.5,-0.5 94.5,-0.5 112.5,-0.5C 113.49,25.4257 113.824,51.4257 113.5,77.5C 111.087,75.9493 108.421,75.2826 105.5,75.5C 90.0089,74.5037 74.3422,74.1704 58.5,74.5C 58.5,56.8333 58.5,39.1667 58.5,21.5C 71.8375,21.6666 85.1708,21.4999 98.5,21C 101.306,19.6949 102.14,17.5282 101,14.5C 100.329,13.7476 99.4959,13.4142 98.5,13.5C 85.3438,12.5044 72.0105,12.1711 58.5,12.5C 58.5,8.16667 58.5,3.83333 58.5,-0.5 Z"/></g>
<g><path style="opacity:1" fill="#ff5d5c" d="M 16.5,13.5 C 24.84,13.3336 33.1733,13.5003 41.5,14C 42.8333,16 42.8333,18 41.5,20C 33.1667,20.6667 24.8333,20.6667 16.5,20C 13.9387,17.8441 13.9387,15.6774 16.5,13.5 Z"/></g>
<g><path style="opacity:1" fill="#31cc78" d="M 98.5,13.5 C 99.4959,13.4142 100.329,13.7476 101,14.5C 102.14,17.5282 101.306,19.6949 98.5,21C 85.1708,21.4999 71.8375,21.6666 58.5,21.5C 52.019,22.5265 49.6857,20.0265 51.5,14C 67.1631,13.5001 82.8298,13.3334 98.5,13.5 Z"/></g>
<g><path style="opacity:1" fill="#26c9cd" d="M 44.5,25.5 C 51.004,25.1377 52.6707,27.6377 49.5,33C 48.552,33.4828 47.552,33.6495 46.5,33.5C 46.6633,35.8568 46.4966,38.1902 46,40.5C 44.6924,42.6414 43.1924,44.6414 41.5,46.5C 42.8149,48.3159 44.3149,49.9825 46,51.5C 46.3333,54.5 46.6667,57.5 47,60.5C 52.9137,63.7369 52.9137,66.7369 47,69.5C 45.1072,68.8037 43.2738,67.9704 41.5,67C 39.235,63.17 38.0683,59.0033 38,54.5C 36,52.5 34,50.5 32,48.5C 32.5254,44.2385 34.5254,40.5719 38,37.5C 37.8485,32.1295 40.0152,28.1295 44.5,25.5 Z"/></g>
<g><path style="opacity:1" fill="#26b7bb" d="M 67.5,25.5 C 70.8621,25.0695 73.6954,26.0695 76,28.5C 77.8271,32.2815 78.8271,36.2815 79,40.5C 81.5535,42.7162 83.7201,45.2162 85.5,48C 84.1144,51.3912 81.9478,54.2246 79,56.5C 79.0163,63.4764 75.683,67.8097 69,69.5C 65.7948,68.2018 64.7948,65.8684 66,62.5C 67.3333,61.8333 68.6667,61.1667 70,60.5C 70.3333,58.1667 70.6667,55.8333 71,53.5C 72.6851,51.9825 74.1851,50.3159 75.5,48.5C 70.9209,44.5878 69.2543,39.5878 70.5,33.5C 65.243,32.4825 64.243,29.8158 67.5,25.5 Z"/></g>
<g><path style="opacity:1" fill="#ff971b" d="M 17.5,28.5 C 22.8437,28.334 28.1771,28.5006 33.5,29C 35.3959,30.8083 35.8959,32.975 35,35.5C 28.9156,36.642 22.7489,36.8087 16.5,36C 15.4258,35.2613 14.7591,34.2613 14.5,33C 15.3146,31.3566 16.3146,29.8566 17.5,28.5 Z"/></g>
<g><path style="opacity:1" fill="#ff625e" d="M 86.5,28.5 C 90.5138,28.3345 94.5138,28.5012 98.5,29C 102.037,30.8265 102.371,33.1598 99.5,36C 94.8333,36.6667 90.1667,36.6667 85.5,36C 84.0825,33.2565 84.4159,30.7565 86.5,28.5 Z"/></g>
<g><path style="opacity:1" fill="#ff6763" d="M 16.5,44.5 C 20.1817,44.3347 23.8484,44.5014 27.5,45C 30.1924,47.6324 29.859,49.9658 26.5,52C 23.5,52.6667 20.5,52.6667 17.5,52C 14.0338,49.8064 13.7005,47.3064 16.5,44.5 Z"/></g>
<g><path style="opacity:1" fill="#2ecc78" d="M 89.5,44.5 C 93.1817,44.3347 96.8484,44.5014 100.5,45C 101.982,47.5918 101.648,49.9251 99.5,52C 96.1667,52.6667 92.8333,52.6667 89.5,52C 86.9142,49.506 86.9142,47.006 89.5,44.5 Z"/></g>
<g><path style="opacity:1" fill="#1dcd7a" d="M 16.5,59.5 C 22.1764,59.3339 27.8431,59.5006 33.5,60C 36.1667,62.3333 36.1667,64.6667 33.5,67C 27.8333,67.6667 22.1667,67.6667 16.5,67C 13.9142,64.506 13.9142,62.006 16.5,59.5 Z"/></g>
<g><path style="opacity:1" fill="#ff940c" d="M 85.5,59.5 C 90.1785,59.3342 94.8452,59.5008 99.5,60C 102.167,62.3333 102.167,64.6667 99.5,67C 95.1667,67.6667 90.8333,67.6667 86.5,67C 82.8941,64.9497 82.5608,62.4497 85.5,59.5 Z"/></g>
<g><path style="opacity:0.989" fill="#1fb7bd" d="M 58.5,74.5 C 74.3422,74.1704 90.0089,74.5037 105.5,75.5C 95.5,75.5 85.5,75.5 75.5,75.5C 75.5,79.5 75.5,83.5 75.5,87.5C 73.901,87.2322 72.5676,87.5655 71.5,88.5C 64.9494,89.9414 62.7827,93.9414 65,100.5C 66.451,102.464 68.2843,103.797 70.5,104.5C 72.9686,105.317 75.6353,105.817 78.5,106C 74.3123,106.176 70.3123,106.676 66.5,107.5C 64.3131,109.282 63.9797,111.448 65.5,114C 68.8168,114.498 72.1501,114.665 75.5,114.5C 76.8333,114.5 78.1667,114.5 79.5,114.5C 78.4324,115.434 77.099,115.768 75.5,115.5C 75.5,119.5 75.5,123.5 75.5,127.5C 63.8333,127.5 52.1667,127.5 40.5,127.5C 32.8153,124.472 28.482,118.806 27.5,110.5C 23.0075,85.3425 33.3409,73.3425 58.5,74.5 Z"/></g>
<g><path style="opacity:1" fill="#03777b" d="M 105.5,75.5 C 108.421,75.2826 111.087,75.9493 113.5,77.5C 118.241,79.7453 121.408,83.412 123,88.5C 123.667,97.1667 123.667,105.833 123,114.5C 120.621,120.71 116.454,125.043 110.5,127.5C 98.8333,127.5 87.1667,127.5 75.5,127.5C 75.5,123.5 75.5,119.5 75.5,115.5C 77.099,115.768 78.4324,115.434 79.5,114.5C 83.9963,113.501 86.663,110.668 87.5,106C 86.148,99.487 82.148,96.6536 75.5,97.5C 78.1667,96.8333 80.8333,96.1667 83.5,95.5C 88.3583,93.7312 88.6917,91.2312 84.5,88C 81.5184,87.502 78.5184,87.3354 75.5,87.5C 75.5,83.5 75.5,79.5 75.5,75.5C 85.5,75.5 95.5,75.5 105.5,75.5 Z"/></g>
<g><path style="opacity:1" fill="#b9fbfd" d="M 46.5,88.5 C 51.1785,88.3342 55.8452,88.5008 60.5,89C 63.1667,91 63.1667,93 60.5,95C 56.4452,95.2315 52.4452,95.7315 48.5,96.5C 45.6092,100.318 45.9425,103.818 49.5,107C 53.1667,107.333 56.8333,107.667 60.5,108C 63.1667,110 63.1667,112 60.5,114C 44.768,117.564 37.9347,111.397 40,95.5C 41.6941,92.6424 43.8607,90.309 46.5,88.5 Z"/></g>
<g><path style="opacity:1" fill="#bbfcfe" d="M 71.5,88.5 C 72.8333,88.5 74.1667,88.5 75.5,88.5C 75.5,90.8333 75.5,93.1667 75.5,95.5C 70.1667,96.1667 70.1667,96.8333 75.5,97.5C 75.5,99.8333 75.5,102.167 75.5,104.5C 73.8333,104.5 72.1667,104.5 70.5,104.5C 68.2843,103.797 66.451,102.464 65,100.5C 62.7827,93.9414 64.9494,89.9414 71.5,88.5 Z"/></g>
<g><path style="opacity:1" fill="#94f5f9" d="M 71.5,88.5 C 72.5676,87.5655 73.901,87.2322 75.5,87.5C 78.5184,87.3354 81.5184,87.502 84.5,88C 88.6917,91.2312 88.3583,93.7312 83.5,95.5C 80.8333,95.5 78.1667,95.5 75.5,95.5C 75.5,93.1667 75.5,90.8333 75.5,88.5C 74.1667,88.5 72.8333,88.5 71.5,88.5 Z"/></g>
<g><path style="opacity:1" fill="#95f6fa" d="M 95.5,87.5 C 100.179,87.3342 104.845,87.5008 109.5,88C 111.648,90.0749 111.982,92.4082 110.5,95C 105.798,95.1717 101.132,95.6717 96.5,96.5C 99.7848,97.3236 103.118,97.8236 106.5,98C 111.069,100.541 112.569,104.375 111,109.5C 110.167,111.667 108.667,113.167 106.5,114C 101.167,114.667 95.8333,114.667 90.5,114C 87.8333,112 87.8333,110 90.5,108C 95.3481,107.941 100.015,107.274 104.5,106C 100.75,105.74 97.0836,105.073 93.5,104C 91.6667,103.5 90.5,102.333 90,100.5C 89.3333,97.8333 89.3333,95.1667 90,92.5C 91.7297,90.5981 93.563,88.9314 95.5,87.5 Z"/></g>
<g><path style="opacity:1" fill="#33b8bd" d="M 75.5,95.5 C 78.1667,95.5 80.8333,95.5 83.5,95.5C 80.8333,96.1667 78.1667,96.8333 75.5,97.5C 70.1667,96.8333 70.1667,96.1667 75.5,95.5 Z"/></g>
<g><path style="opacity:1" fill="#94f5f9" d="M 75.5,97.5 C 82.148,96.6536 86.148,99.487 87.5,106C 86.663,110.668 83.9963,113.501 79.5,114.5C 78.1667,114.5 76.8333,114.5 75.5,114.5C 75.5,112.167 75.5,109.833 75.5,107.5C 72.5,107.5 69.5,107.5 66.5,107.5C 70.3123,106.676 74.3123,106.176 78.5,106C 75.6353,105.817 72.9686,105.317 70.5,104.5C 72.1667,104.5 73.8333,104.5 75.5,104.5C 75.5,102.167 75.5,99.8333 75.5,97.5 Z"/></g>
<g><path style="opacity:1" fill="#bbfcfe" d="M 66.5,107.5 C 69.5,107.5 72.5,107.5 75.5,107.5C 75.5,109.833 75.5,112.167 75.5,114.5C 72.1501,114.665 68.8168,114.498 65.5,114C 63.9797,111.448 64.3131,109.282 66.5,107.5 Z"/></g>
</svg>
