<?xml version="1.0" encoding="UTF-8"?>
<!DOCTYPE svg PUBLIC "-//W3C//DTD SVG 1.1//EN" "http://www.w3.org/Graphics/SVG/1.1/DTD/svg11.dtd">
<svg xmlns="http://www.w3.org/2000/svg" version="1.1" width="128px" height="128px" style="shape-rendering:geometricPrecision; text-rendering:geometricPrecision; image-rendering:optimizeQuality; fill-rule:evenodd; clip-rule:evenodd" xmlns:xlink="http://www.w3.org/1999/xlink">
<g><path style="opacity:0.954" fill="#40c3ff" d="M 68.5,9.5 C 79.505,9.33349 90.505,9.50015 101.5,10C 78.5,33 55.5,56 32.5,79C 31.8333,79.6667 31.1667,79.6667 30.5,79C 25.6667,74.1667 20.8333,69.3333 16,64.5C 15.3333,63.8333 15.3333,63.1667 16,62.5C 33.7017,44.9652 51.2017,27.2986 68.5,9.5 Z"/></g>
<g><path style="opacity:0.936" fill="#40c3ff" d="M 72.5,87.5 C 72.1667,87.5 71.8333,87.5 71.5,87.5C 66.5,81.8333 61.1667,76.5 55.5,71.5C 59.6299,66.8688 63.9633,62.3688 68.5,58C 79.5,57.3333 90.5,57.3333 101.5,58C 91.6311,67.7016 81.9645,77.5349 72.5,87.5 Z"/></g>
<g><path style="opacity:0.996" fill="#03a9f4" d="M 55.5,71.5 C 61.1667,76.5 66.5,81.8333 71.5,87.5C 66.5,91.8333 61.8333,96.5 57.5,101.5C 56.5,101.833 55.8333,102.5 55.5,103.5C 49.8543,98.521 44.521,93.1877 39.5,87.5C 44.521,81.8123 49.8543,76.479 55.5,71.5 Z"/></g>
<g><path style="opacity:1" fill="#074b95" d="M 71.5,87.5 C 71.8333,87.5 72.1667,87.5 72.5,87.5C 74.8333,90.1667 77.1667,92.8333 79.5,95.5C 72.7322,97.9229 65.8988,100.256 59,102.5C 58.2352,102.43 57.7352,102.097 57.5,101.5C 61.8333,96.5 66.5,91.8333 71.5,87.5 Z"/></g>
<g><path style="opacity:0.934" fill="#00569a" d="M 79.5,95.5 C 86.9649,102.464 94.2982,109.631 101.5,117C 90.5,117.667 79.5,117.667 68.5,117C 63.9633,112.631 59.6299,108.131 55.5,103.5C 55.8333,102.5 56.5,101.833 57.5,101.5C 57.7352,102.097 58.2352,102.43 59,102.5C 65.8988,100.256 72.7322,97.9229 79.5,95.5 Z"/></g>
</svg>
