<?xml version="1.0" encoding="UTF-8"?>
<!DOCTYPE svg PUBLIC "-//W3C//DTD SVG 1.1//EN" "http://www.w3.org/Graphics/SVG/1.1/DTD/svg11.dtd">
<svg xmlns="http://www.w3.org/2000/svg" version="1.1" width="128px" height="128px" style="shape-rendering:geometricPrecision; text-rendering:geometricPrecision; image-rendering:optimizeQuality; fill-rule:evenodd; clip-rule:evenodd" xmlns:xlink="http://www.w3.org/1999/xlink">
<g><path style="opacity:0.992" fill="#fee077" d="M 29.5,-0.5 C 56.1667,-0.5 82.8333,-0.5 109.5,-0.5C 108.382,5.08402 108.215,10.7507 109,16.5C 109.5,17 110,17.5 110.5,18C 113.482,18.498 116.482,18.6646 119.5,18.5C 119.667,54.1682 119.5,89.8349 119,125.5C 118.283,126.044 117.783,126.711 117.5,127.5C 88.1667,127.5 58.8333,127.5 29.5,127.5C 27.7459,123.742 27.0792,119.742 27.5,115.5C 50.3273,114.502 73.3273,114.169 96.5,114.5C 106.719,114.406 110.385,109.24 107.5,99C 110.326,88.7605 106.659,83.2605 96.5,82.5C 73.5,82.5 50.5,82.5 27.5,82.5C 27.3334,55.8313 27.5,29.1646 28,2.5C 28.5133,1.47344 29.0133,0.473444 29.5,-0.5 Z"/></g>
<g><path style="opacity:1" fill="#fec265" d="M 109.5,-0.5 C 109.833,-0.5 110.167,-0.5 110.5,-0.5C 115.833,5.5 121.5,11.1667 127.5,16.5C 127.5,16.8333 127.5,17.1667 127.5,17.5C 124.794,17.5751 122.127,17.9084 119.5,18.5C 116.482,18.6646 113.482,18.498 110.5,18C 110,17.5 109.5,17 109,16.5C 108.215,10.7507 108.382,5.08402 109.5,-0.5 Z"/></g>
<g><path style="opacity:1" fill="#839195" d="M 47.5,8.5 C 49.1667,8.5 50.8333,8.5 52.5,8.5C 52.6495,9.55198 52.4828,10.552 52,11.5C 50.108,12.13 48.4413,13.13 47,14.5C 46.8692,17.3712 45.7025,19.7046 43.5,21.5C 45.7025,23.2954 46.8692,25.6288 47,28.5C 48.4413,29.87 50.108,30.87 52,31.5C 52.4828,32.448 52.6495,33.448 52.5,34.5C 50.0108,34.7022 47.6775,34.2022 45.5,33C 43.673,28.8542 41.3397,25.0209 38.5,21.5C 41.5048,18.8361 43.3381,15.5027 44,11.5C 45.1451,10.3636 46.3117,9.36362 47.5,8.5 Z"/></g>
<g><path style="opacity:1" fill="#849295" d="M 64.5,8.5 C 66.9892,8.29777 69.3225,8.79777 71.5,10C 74.1944,13.6793 76.5277,17.5127 78.5,21.5C 76.5277,25.4873 74.1944,29.3207 71.5,33C 69.3225,34.2022 66.9892,34.7022 64.5,34.5C 64.33,33.1779 64.6634,32.0113 65.5,31C 67.1012,30.7266 68.6012,30.2266 70,29.5C 70.869,26.6697 72.0357,24.003 73.5,21.5C 71.9848,19.4527 71.1515,17.1193 71,14.5C 69.5093,12.9963 67.676,12.1629 65.5,12C 64.6634,10.9887 64.33,9.82207 64.5,8.5 Z"/></g>
<g><path style="opacity:1" fill="#859295" d="M 57.5,13.5 C 58.5,13.5 59.5,13.5 60.5,13.5C 60.5,15.1667 60.5,16.8333 60.5,18.5C 59.5,18.5 58.5,18.5 57.5,18.5C 57.5,16.8333 57.5,15.1667 57.5,13.5 Z"/></g>
<g><path style="opacity:1" fill="#ffd15c" d="M 127.5,17.5 C 127.5,53.5 127.5,89.5 127.5,125.5C 126.5,125.833 125.833,126.5 125.5,127.5C 122.833,127.5 120.167,127.5 117.5,127.5C 117.783,126.711 118.283,126.044 119,125.5C 119.5,89.8349 119.667,54.1682 119.5,18.5C 122.127,17.9084 124.794,17.5751 127.5,17.5 Z"/></g>
<g><path style="opacity:1" fill="#839195" d="M 57.5,23.5 C 58.5,23.5 59.5,23.5 60.5,23.5C 61.4015,27.2407 60.0681,29.2407 56.5,29.5C 56.3253,27.3792 56.6586,25.3792 57.5,23.5 Z"/></g>
<g><path style="opacity:1" fill="#a2d6b2" d="M 37.5,41.5 C 41.5138,41.3345 45.5138,41.5012 49.5,42C 50.8333,43 50.8333,44 49.5,45C 45.5,45.6667 41.5,45.6667 37.5,45C 36.3157,43.8545 36.3157,42.6879 37.5,41.5 Z"/></g>
<g><path style="opacity:1" fill="#859295" d="M 53.5,41.5 C 59.1764,41.3339 64.8431,41.5006 70.5,42C 71.8333,43 71.8333,44 70.5,45C 64.8333,45.6667 59.1667,45.6667 53.5,45C 52.3157,43.8545 52.3157,42.6879 53.5,41.5 Z"/></g>
<g><path style="opacity:1" fill="#f5f6ef" d="M 74.5,41.5 C 84.5056,41.3335 94.5056,41.5002 104.5,42C 105.833,43 105.833,44 104.5,45C 94.5056,45.4998 84.5056,45.6665 74.5,45.5C 74.5,44.1667 74.5,42.8333 74.5,41.5 Z"/></g>
<g><path style="opacity:1" fill="#f17a80" d="M 108.5,41.5 C 111.833,41.5 115.167,41.5 118.5,41.5C 118.67,42.8221 118.337,43.9887 117.5,45C 114.518,45.498 111.518,45.6646 108.5,45.5C 108.5,44.1667 108.5,42.8333 108.5,41.5 Z"/></g>
<g><path style="opacity:1" fill="#f07880" d="M 37.5,50.5 C 45.84,50.3336 54.1733,50.5003 62.5,51C 63.8333,52 63.8333,53 62.5,54C 54.1667,54.6667 45.8333,54.6667 37.5,54C 36.3157,52.8545 36.3157,51.6879 37.5,50.5 Z"/></g>
<g><path style="opacity:1" fill="#9ed5b5" d="M 66.5,50.5 C 69.5184,50.3354 72.5184,50.502 75.5,51C 76.8333,52 76.8333,53 75.5,54C 72.5,54.6667 69.5,54.6667 66.5,54C 65.3157,52.8545 65.3157,51.6879 66.5,50.5 Z"/></g>
<g><path style="opacity:1" fill="#808f96" d="M 79.5,50.5 C 88.8333,50.5 98.1667,50.5 107.5,50.5C 107.5,51.8333 107.5,53.1667 107.5,54.5C 98.1667,54.5 88.8333,54.5 79.5,54.5C 79.5,53.1667 79.5,51.8333 79.5,50.5 Z"/></g>
<g><path style="opacity:1" fill="#839196" d="M 111.5,50.5 C 113.833,50.5 116.167,50.5 118.5,50.5C 118.5,51.8333 118.5,53.1667 118.5,54.5C 116.143,54.6633 113.81,54.4966 111.5,54C 110.316,52.8545 110.316,51.6879 111.5,50.5 Z"/></g>
<g><path style="opacity:1" fill="#f5f6f2" d="M 37.5,59.5 C 42.5,59.5 47.5,59.5 52.5,59.5C 52.5,60.8333 52.5,62.1667 52.5,63.5C 47.4889,63.6659 42.4889,63.4993 37.5,63C 36.3157,61.8545 36.3157,60.6879 37.5,59.5 Z"/></g>
<g><path style="opacity:1" fill="#7e8e97" d="M 56.5,59.5 C 64.5069,59.3336 72.5069,59.5003 80.5,60C 81.3366,61.0113 81.67,62.1779 81.5,63.5C 73.16,63.6664 64.8267,63.4997 56.5,63C 55.3157,61.8545 55.3157,60.6879 56.5,59.5 Z"/></g>
<g><path style="opacity:1" fill="#9dd5b5" d="M 84.5,59.5 C 89.5111,59.3341 94.5111,59.5007 99.5,60C 100.833,61 100.833,62 99.5,63C 94.5111,63.4993 89.5111,63.6659 84.5,63.5C 84.5,62.1667 84.5,60.8333 84.5,59.5 Z"/></g>
<g><path style="opacity:1" fill="#f07780" d="M 103.5,59.5 C 108.5,59.5 113.5,59.5 118.5,59.5C 118.5,60.8333 118.5,62.1667 118.5,63.5C 113.489,63.6659 108.489,63.4993 103.5,63C 102.316,61.8545 102.316,60.6879 103.5,59.5 Z"/></g>
<g><path style="opacity:1" fill="#9dd5b5" d="M 37.5,68.5 C 47.5056,68.3335 57.5056,68.5002 67.5,69C 68.8333,70 68.8333,71 67.5,72C 57.5,72.6667 47.5,72.6667 37.5,72C 36.3157,70.8545 36.3157,69.6879 37.5,68.5 Z"/></g>
<g><path style="opacity:1" fill="#839195" d="M 71.5,68.5 C 75.5138,68.3345 79.5138,68.5012 83.5,69C 84.8333,70 84.8333,71 83.5,72C 79.5,72.6667 75.5,72.6667 71.5,72C 70.3157,70.8545 70.3157,69.6879 71.5,68.5 Z"/></g>
<g><path style="opacity:1" fill="#f17a80" d="M 87.5,68.5 C 90.5184,68.3354 93.5184,68.502 96.5,69C 97.3366,70.0113 97.67,71.1779 97.5,72.5C 94.1501,72.665 90.8168,72.4983 87.5,72C 86.3157,70.8545 86.3157,69.6879 87.5,68.5 Z"/></g>
<g><path style="opacity:1" fill="#f5f6f1" d="M 100.5,68.5 C 106.5,68.5 112.5,68.5 118.5,68.5C 118.5,69.8333 118.5,71.1667 118.5,72.5C 112.5,72.5 106.5,72.5 100.5,72.5C 100.5,71.1667 100.5,69.8333 100.5,68.5 Z"/></g>
<g><path style="opacity:0.993" fill="#fef2bd" d="M 27.5,82.5 C 50.5,82.5 73.5,82.5 96.5,82.5C 101.008,86.7502 102.675,92.0835 101.5,98.5C 101.333,102.167 101.167,105.833 101,109.5C 99.975,111.687 98.475,113.354 96.5,114.5C 73.3273,114.169 50.3273,114.502 27.5,115.5C 20.1591,115.666 12.8258,115.5 5.5,115C 2.85408,114.196 0.854084,112.696 -0.5,110.5C -0.5,102.833 -0.5,95.1667 -0.5,87.5C 0.646381,85.525 2.31305,84.025 4.5,83C 12.1594,82.5003 19.8261,82.3336 27.5,82.5 Z"/></g>
<g><path style="opacity:1" fill="#fedca6" d="M 96.5,82.5 C 106.659,83.2605 110.326,88.7605 107.5,99C 110.385,109.24 106.719,114.406 96.5,114.5C 98.475,113.354 99.975,111.687 101,109.5C 101.167,105.833 101.333,102.167 101.5,98.5C 102.675,92.0835 101.008,86.7502 96.5,82.5 Z"/></g>
<g><path style="opacity:1" fill="#84939a" d="M 44.5,88.5 C 45.8221,88.33 46.9887,88.6634 48,89.5C 48.6667,94.8333 48.6667,100.167 48,105.5C 45.6925,109.662 42.6925,110.328 39,107.5C 38.5172,106.552 38.3505,105.552 38.5,104.5C 40.46,105.138 42.2933,105.138 44,104.5C 44.4994,99.1771 44.666,93.8437 44.5,88.5 Z"/></g>
<g><path style="opacity:1" fill="#82929a" d="M 58.5,88.5 C 61.7239,88.2035 64.7239,88.8702 67.5,90.5C 68.3857,91.325 68.719,92.325 68.5,93.5C 65.5176,93.0371 62.5176,92.7038 59.5,92.5C 59.33,93.8221 59.6634,94.9887 60.5,96C 66.9584,96.7791 69.4584,100.279 68,106.5C 63.6667,110.5 59.3333,110.5 55,106.5C 54.5172,105.552 54.3505,104.552 54.5,103.5C 56.905,103.866 59.2383,104.533 61.5,105.5C 64.3962,104.976 65.0628,103.476 63.5,101C 54.9926,99.3413 53.3259,95.1747 58.5,88.5 Z"/></g>
<g><path style="opacity:1" fill="#ffe37f" d="M 23.5,96.5 C 25.9775,96.0508 27.9775,96.7175 29.5,98.5C 29.2907,99.086 28.9574,99.586 28.5,100C 26.5273,100.495 24.5273,100.662 22.5,100.5C 22.4326,99.0413 22.7659,97.7079 23.5,96.5 Z"/></g>
<g><path style="opacity:1" fill="#ffe27d" d="M 79.5,96.5 C 81.1667,96.5 82.8333,96.5 84.5,96.5C 84.5,97.8333 84.5,99.1667 84.5,100.5C 82.5,100.5 80.5,100.5 78.5,100.5C 78.4326,99.0413 78.7659,97.7079 79.5,96.5 Z"/></g>
</svg>
