<?xml version="1.0" encoding="UTF-8"?>
<!DOCTYPE svg PUBLIC "-//W3C//DTD SVG 1.1//EN" "http://www.w3.org/Graphics/SVG/1.1/DTD/svg11.dtd">
<svg xmlns="http://www.w3.org/2000/svg" version="1.1" width="128px" height="128px" style="shape-rendering:geometricPrecision; text-rendering:geometricPrecision; image-rendering:optimizeQuality; fill-rule:evenodd; clip-rule:evenodd" xmlns:xlink="http://www.w3.org/1999/xlink">
<g><path style="opacity:0.943" fill="#b6aafd" d="M 60.5,-0.5 C 62.8333,-0.5 65.1667,-0.5 67.5,-0.5C 67.5,0.166667 67.8333,0.5 68.5,0.5C 68.5,4.5 68.5,8.5 68.5,12.5C 66.8297,12.2488 65.3297,11.5822 64,10.5C 63.3292,11.2524 62.4959,11.5858 61.5,11.5C 60.5184,8.03808 60.185,4.37141 60.5,0.5C 60.5,0.166667 60.5,-0.166667 60.5,-0.5 Z"/></g>
<g><path style="opacity:0.956" fill="#b0b0fe" d="M 60.5,0.5 C 60.185,4.37141 60.5184,8.03808 61.5,11.5C 59.8185,13.0075 57.8185,14.0075 55.5,14.5C 55.5,10.5 55.5,6.5 55.5,2.5C 57.0495,1.5592 58.7162,0.892535 60.5,0.5 Z"/></g>
<g><path style="opacity:0.941" fill="#abb4fe" d="M 55.5,2.5 C 55.5,6.5 55.5,10.5 55.5,14.5C 53.8185,16.0075 51.8185,17.0075 49.5,17.5C 48.5184,14.0381 48.185,10.3714 48.5,6.5C 50.6351,4.92908 52.9684,3.59575 55.5,2.5 Z"/></g>
<g><path style="opacity:0.937" fill="#bda5fd" d="M 68.5,0.5 C 72.3617,2.26187 76.0283,4.26187 79.5,6.5C 78.5184,9.96192 78.185,13.6286 78.5,17.5C 74.8487,16.3411 71.5154,14.6744 68.5,12.5C 68.5,8.5 68.5,4.5 68.5,0.5 Z"/></g>
<g><path style="opacity:0.884" fill="#a5b8fe" d="M 48.5,6.5 C 48.185,10.3714 48.5184,14.0381 49.5,17.5C 47.1515,19.341 44.4848,20.6743 41.5,21.5C 41.815,17.6286 41.4816,13.9619 40.5,10.5C 42.8485,8.659 45.5152,7.32567 48.5,6.5 Z"/></g>
<g><path style="opacity:0.95" fill="#c49ffd" d="M 79.5,6.5 C 81.9538,7.22713 84.2872,8.22713 86.5,9.5C 86.5,13.5 86.5,17.5 86.5,21.5C 83.5152,20.6743 80.8485,19.341 78.5,17.5C 78.185,13.6286 78.5184,9.96192 79.5,6.5 Z"/></g>
<g><path style="opacity:0.95" fill="#9fbefe" d="M 40.5,10.5 C 41.4816,13.9619 41.815,17.6286 41.5,21.5C 39.1515,23.341 36.4848,24.6743 33.5,25.5C 32.5184,22.0381 32.185,18.3714 32.5,14.5C 34.8485,12.659 37.5152,11.3257 40.5,10.5 Z"/></g>
<g><path style="opacity:0.933" fill="#ca99fd" d="M 86.5,9.5 C 89.1667,10.8333 91.8333,12.1667 94.5,13.5C 94.7633,17.6002 94.4299,21.6002 93.5,25.5C 90.9684,24.4043 88.6351,23.0709 86.5,21.5C 86.5,17.5 86.5,13.5 86.5,9.5 Z"/></g>
<g><path style="opacity:0.942" fill="#98c4fe" d="M 32.5,14.5 C 32.185,18.3714 32.5184,22.0381 33.5,25.5C 31.8185,27.0075 29.8185,28.0075 27.5,28.5C 25.5864,25.3157 24.9197,21.649 25.5,17.5C 27.7128,16.2271 30.0462,15.2271 32.5,14.5 Z"/></g>
<g><path style="opacity:0.968" fill="#d194fd" d="M 94.5,13.5 C 97.0316,14.5957 99.3649,15.9291 101.5,17.5C 101.815,21.3714 101.482,25.0381 100.5,28.5C 98.0462,27.7729 95.7128,26.7729 93.5,25.5C 94.4299,21.6002 94.7633,17.6002 94.5,13.5 Z"/></g>
<g><path style="opacity:0.915" fill="#92c8fe" d="M 25.5,17.5 C 24.9197,21.649 25.5864,25.3157 27.5,28.5C 25.1515,30.341 22.4848,31.6743 19.5,32.5C 18.5184,29.0381 18.185,25.3714 18.5,21.5C 20.6351,19.9291 22.9684,18.5957 25.5,17.5 Z"/></g>
<g><path style="opacity:0.949" fill="#8ccdff" d="M 18.5,21.5 C 18.185,25.3714 18.5184,29.0381 19.5,32.5C 19.0825,33.2216 18.4158,33.7216 17.5,34C 18.4158,34.2784 19.0825,34.7784 19.5,35.5C 18.5184,38.9619 18.185,42.6286 18.5,46.5C 16.0462,45.7729 13.7128,44.7729 11.5,43.5C 11.5,37.1667 11.5,30.8333 11.5,24.5C 13.7128,23.2271 16.0462,22.2271 18.5,21.5 Z"/></g>
<g><path style="opacity:0.946" fill="#da8dfc" d="M 101.5,17.5 C 105.818,18.9922 109.818,20.9922 113.5,23.5C 113.5,30.5 113.5,37.5 113.5,44.5C 111.365,46.0709 109.032,47.4043 106.5,48.5C 105.517,44.7016 105.183,40.7016 105.5,36.5C 107.14,35.6799 108.807,34.8466 110.5,34C 106.944,32.3924 103.611,30.5591 100.5,28.5C 101.482,25.0381 101.815,21.3714 101.5,17.5 Z"/></g>
<g><path style="opacity:0.964" fill="#df88fc" d="M 113.5,23.5 C 114.609,23.5569 115.609,23.8902 116.5,24.5C 116.5,30.8333 116.5,37.1667 116.5,43.5C 115.609,44.1098 114.609,44.4431 113.5,44.5C 113.5,37.5 113.5,30.5 113.5,23.5 Z"/></g>
<g><path style="opacity:0.939" fill="#86d2ff" d="M 11.5,24.5 C 11.5,30.8333 11.5,37.1667 11.5,43.5C 8.30374,42.0713 5.30374,40.4046 2.5,38.5C 3.83333,35.5 3.83333,32.5 2.5,29.5C 5.30374,27.5954 8.30374,25.9287 11.5,24.5 Z"/></g>
<g><path style="opacity:0.972" fill="#e484fc" d="M 116.5,24.5 C 120.327,26.246 123.993,28.246 127.5,30.5C 127.5,32.8333 127.5,35.1667 127.5,37.5C 123.993,39.754 120.327,41.754 116.5,43.5C 116.5,37.1667 116.5,30.8333 116.5,24.5 Z"/></g>
<g><path style="opacity:0.847" fill="#82d8ff" d="M 2.5,29.5 C 3.83333,32.5 3.83333,35.5 2.5,38.5C 1.39105,38.4431 0.391047,38.1098 -0.5,37.5C -0.5,35.1667 -0.5,32.8333 -0.5,30.5C 0.391047,29.8902 1.39105,29.5569 2.5,29.5 Z"/></g>
<g><path style="opacity:0.929" fill="#92c8fe" d="M 19.5,35.5 C 22.4848,36.3257 25.1515,37.659 27.5,39.5C 25.5411,45.7496 24.8745,52.4163 25.5,59.5C 23.2872,60.7729 20.9538,61.7729 18.5,62.5C 18.5,58.5 18.5,54.5 18.5,50.5C 22.1684,49.4426 22.1684,48.1093 18.5,46.5C 18.185,42.6286 18.5184,38.9619 19.5,35.5 Z"/></g>
<g><path style="opacity:0.974" fill="#98c4fe" d="M 27.5,39.5 C 29.8185,39.9925 31.8185,40.9925 33.5,42.5C 32.5151,46.6344 32.1818,50.9677 32.5,55.5C 30.3649,57.0709 28.0316,58.4043 25.5,59.5C 24.8745,52.4163 25.5411,45.7496 27.5,39.5 Z"/></g>
<g><path style="opacity:0.977" fill="#d393fd" d="M 105.5,36.5 C 105.183,40.7016 105.517,44.7016 106.5,48.5C 106.5,48.8333 106.5,49.1667 106.5,49.5C 105.518,52.9619 105.185,56.6286 105.5,60.5C 101.71,59.1049 98.0432,57.4383 94.5,55.5C 94.7693,51.0685 94.436,46.7352 93.5,42.5C 97.5,40.5 101.5,38.5 105.5,36.5 Z"/></g>
<g><path style="opacity:0.931" fill="#ca99fd" d="M 93.5,42.5 C 94.436,46.7352 94.7693,51.0685 94.5,55.5C 91.6202,55.9402 88.9535,56.9402 86.5,58.5C 86.5,54.5 86.5,50.5 86.5,46.5C 88.6351,44.9291 90.9684,43.5957 93.5,42.5 Z"/></g>
<g><path style="opacity:0.953" fill="#9fbefe" d="M 33.5,42.5 C 36.4848,43.3257 39.1515,44.659 41.5,46.5C 41.815,50.3714 41.4816,54.0381 40.5,57.5C 37.994,56.2504 35.3274,55.5838 32.5,55.5C 32.1818,50.9677 32.5151,46.6344 33.5,42.5 Z"/></g>
<g><path style="opacity:0.896" fill="#a5b9fe" d="M 41.5,46.5 C 44.4848,47.3257 47.1515,48.659 49.5,50.5C 48.7698,54.0606 48.1031,57.7272 47.5,61.5C 44.9684,60.4043 42.6351,59.0709 40.5,57.5C 41.4816,54.0381 41.815,50.3714 41.5,46.5 Z"/></g>
<g><path style="opacity:0.944" fill="#c49ffd" d="M 86.5,46.5 C 86.5,50.5 86.5,54.5 86.5,58.5C 84.2872,59.7729 81.9538,60.7729 79.5,61.5C 78.5184,58.0381 78.185,54.3714 78.5,50.5C 80.8485,48.659 83.5152,47.3257 86.5,46.5 Z"/></g>
<g><path style="opacity:0.942" fill="#8dccff" d="M 18.5,50.5 C 18.5,54.5 18.5,58.5 18.5,62.5C 18.5,63.1667 18.5,63.8333 18.5,64.5C 18.5,68.5 18.5,72.5 18.5,76.5C 16.6316,75.7368 14.9649,74.7368 13.5,73.5C 13.5,66.8333 13.5,60.1667 13.5,53.5C 14.9649,52.2632 16.6316,51.2632 18.5,50.5 Z"/></g>
<g><path style="opacity:0.941" fill="#abb4fe" d="M 49.5,50.5 C 51.8185,50.9925 53.8185,51.9925 55.5,53.5C 55.5,57.5 55.5,61.5 55.5,65.5C 52.8333,64.1667 50.1667,62.8333 47.5,61.5C 48.1031,57.7272 48.7698,54.0606 49.5,50.5 Z"/></g>
<g><path style="opacity:0.931" fill="#bea4fd" d="M 78.5,50.5 C 78.185,54.3714 78.5184,58.0381 79.5,61.5C 77.1515,63.341 74.4848,64.6743 71.5,65.5C 71.5,61.5 71.5,57.5 71.5,53.5C 73.7128,52.2271 76.0462,51.2271 78.5,50.5 Z"/></g>
<g><path style="opacity:0.94" fill="#db8cfc" d="M 106.5,49.5 C 109.485,50.3257 112.151,51.659 114.5,53.5C 113.167,60.1667 113.167,66.8333 114.5,73.5C 112.151,75.341 109.485,76.6743 106.5,77.5C 105.518,74.0381 105.185,70.3714 105.5,66.5C 106.765,65.5207 108.099,64.5207 109.5,63.5C 108.099,62.4793 106.765,61.4793 105.5,60.5C 105.185,56.6286 105.518,52.9619 106.5,49.5 Z"/></g>
<g><path style="opacity:0.956" fill="#b1affd" d="M 55.5,53.5 C 58.6223,54.5612 61.6223,55.8946 64.5,57.5C 64.5,61.1667 64.5,64.8333 64.5,68.5C 61.2084,68.3531 58.2084,67.3531 55.5,65.5C 55.5,61.5 55.5,57.5 55.5,53.5 Z"/></g>
<g><path style="opacity:0.948" fill="#86d2ff" d="M 13.5,53.5 C 13.5,60.1667 13.5,66.8333 13.5,73.5C 8.54989,71.6916 3.88323,69.3583 -0.5,66.5C -0.5,64.5 -0.5,62.5 -0.5,60.5C 3.88323,57.6417 8.54989,55.3084 13.5,53.5 Z"/></g>
<g><path style="opacity:0.956" fill="#e385fc" d="M 114.5,53.5 C 118.958,55.2288 123.291,57.2288 127.5,59.5C 127.5,62.1667 127.5,64.8333 127.5,67.5C 123.291,69.7712 118.958,71.7712 114.5,73.5C 113.167,66.8333 113.167,60.1667 114.5,53.5 Z"/></g>
<g><path style="opacity:0.942" fill="#b8a9fd" d="M 71.5,53.5 C 71.5,57.5 71.5,61.5 71.5,65.5C 69.5739,67.2927 67.2406,68.2927 64.5,68.5C 64.5,64.8333 64.5,61.1667 64.5,57.5C 66.6351,55.9291 68.9684,54.5957 71.5,53.5 Z"/></g>
<g><path style="opacity:0.929" fill="#92c8fe" d="M 18.5,64.5 C 20.9538,65.2271 23.2872,66.2271 25.5,67.5C 24.8745,74.5837 25.5411,81.2504 27.5,87.5C 25.1515,89.341 22.4848,90.6743 19.5,91.5C 18.5184,88.0381 18.185,84.3714 18.5,80.5C 22.1684,78.8907 22.1684,77.5574 18.5,76.5C 18.5,72.5 18.5,68.5 18.5,64.5 Z"/></g>
<g><path style="opacity:0.974" fill="#98c4fe" d="M 25.5,67.5 C 28.0316,68.5957 30.3649,69.9291 32.5,71.5C 32.1818,76.0323 32.5151,80.3656 33.5,84.5C 31.8185,86.0075 29.8185,87.0075 27.5,87.5C 25.5411,81.2504 24.8745,74.5837 25.5,67.5 Z"/></g>
<g><path style="opacity:0.977" fill="#d393fd" d="M 105.5,66.5 C 105.185,70.3714 105.518,74.0381 106.5,77.5C 106.5,77.8333 106.5,78.1667 106.5,78.5C 105.517,82.2984 105.183,86.2984 105.5,90.5C 101.638,88.7381 97.9717,86.7381 94.5,84.5C 94.5,80.1667 94.5,75.8333 94.5,71.5C 98.0432,69.5617 101.71,67.8951 105.5,66.5 Z"/></g>
<g><path style="opacity:0.931" fill="#ca99fd" d="M 94.5,71.5 C 94.5,75.8333 94.5,80.1667 94.5,84.5C 91.8333,85.5 89.1667,86.5 86.5,87.5C 86.815,83.6286 86.4816,79.9619 85.5,76.5C 88.3037,74.5954 91.3037,72.9287 94.5,71.5 Z"/></g>
<g><path style="opacity:0.946" fill="#9fbefe" d="M 32.5,71.5 C 35.6223,72.5612 38.6223,73.8946 41.5,75.5C 41.5,79.5 41.5,83.5 41.5,87.5C 38.8333,86.5 36.1667,85.5 33.5,84.5C 32.5151,80.3656 32.1818,76.0323 32.5,71.5 Z"/></g>
<g><path style="opacity:0.9" fill="#a5b8fe" d="M 41.5,75.5 C 44.0316,76.5957 46.3649,77.9291 48.5,79.5C 48.5,83.5 48.5,87.5 48.5,91.5C 45.9684,90.4043 43.6351,89.0709 41.5,87.5C 41.5,83.5 41.5,79.5 41.5,75.5 Z"/></g>
<g><path style="opacity:0.942" fill="#c49efd" d="M 85.5,76.5 C 86.4816,79.9619 86.815,83.6286 86.5,87.5C 84.8185,89.0075 82.8185,90.0075 80.5,90.5C 78.5864,87.3157 77.9197,83.649 78.5,79.5C 80.7128,78.2271 83.0462,77.2271 85.5,76.5 Z"/></g>
<g><path style="opacity:0.949" fill="#8ccdff" d="M 18.5,80.5 C 18.185,84.3714 18.5184,88.0381 19.5,91.5C 19.0825,92.2216 18.4158,92.7216 17.5,93C 18.4158,93.2784 19.0825,93.7784 19.5,94.5C 18.5184,97.9619 18.185,101.629 18.5,105.5C 16.0462,104.773 13.7128,103.773 11.5,102.5C 11.5,96.1667 11.5,89.8333 11.5,83.5C 13.7128,82.2271 16.0462,81.2271 18.5,80.5 Z"/></g>
<g><path style="opacity:0.952" fill="#abb4fe" d="M 48.5,79.5 C 51.4848,80.3257 54.1515,81.659 56.5,83.5C 55.5184,86.9619 55.185,90.6286 55.5,94.5C 53.0462,93.7729 50.7128,92.7729 48.5,91.5C 48.5,87.5 48.5,83.5 48.5,79.5 Z"/></g>
<g><path style="opacity:0.949" fill="#bea4fd" d="M 78.5,79.5 C 77.9197,83.649 78.5864,87.3157 80.5,90.5C 78.1515,92.341 75.4848,93.6743 72.5,94.5C 71.5184,91.0381 71.185,87.3714 71.5,83.5C 73.6351,81.9291 75.9684,80.5957 78.5,79.5 Z"/></g>
<g><path style="opacity:0.946" fill="#db8bfc" d="M 106.5,78.5 C 109.833,80.1667 113.167,81.8333 116.5,83.5C 116.5,89.8333 116.5,96.1667 116.5,102.5C 112.957,104.438 109.29,106.105 105.5,107.5C 105.5,103.5 105.5,99.5 105.5,95.5C 107.14,94.6799 108.807,93.8466 110.5,93C 108.807,92.1534 107.14,91.3201 105.5,90.5C 105.183,86.2984 105.517,82.2984 106.5,78.5 Z"/></g>
<g><path style="opacity:0.939" fill="#86d2ff" d="M 11.5,83.5 C 11.5,89.8333 11.5,96.1667 11.5,102.5C 8.30374,101.071 5.30374,99.4046 2.5,97.5C 3.83333,94.5 3.83333,91.5 2.5,88.5C 5.30374,86.5954 8.30374,84.9287 11.5,83.5 Z"/></g>
<g><path style="opacity:0.954" fill="#b1affe" d="M 56.5,83.5 C 58.9538,84.2271 61.2872,85.2271 63.5,86.5C 64.4299,90.3998 64.7633,94.3998 64.5,98.5C 61.0878,97.9579 58.0878,96.6246 55.5,94.5C 55.185,90.6286 55.5184,86.9619 56.5,83.5 Z"/></g>
<g><path style="opacity:0.966" fill="#e484fc" d="M 116.5,83.5 C 120.327,85.246 123.993,87.246 127.5,89.5C 127.5,91.8333 127.5,94.1667 127.5,96.5C 123.993,98.754 120.327,100.754 116.5,102.5C 116.5,96.1667 116.5,89.8333 116.5,83.5 Z"/></g>
<g><path style="opacity:0.932" fill="#b8a9fd" d="M 71.5,83.5 C 71.185,87.3714 71.5184,91.0381 72.5,94.5C 70.1515,96.341 67.4848,97.6743 64.5,98.5C 64.7633,94.3998 64.4299,90.3998 63.5,86.5C 66.1667,85.5 68.8333,84.5 71.5,83.5 Z"/></g>
<g><path style="opacity:0.847" fill="#82d8ff" d="M 2.5,88.5 C 3.83333,91.5 3.83333,94.5 2.5,97.5C 1.39105,97.4431 0.391047,97.1098 -0.5,96.5C -0.5,94.1667 -0.5,91.8333 -0.5,89.5C 0.391047,88.8902 1.39105,88.5569 2.5,88.5 Z"/></g>
<g><path style="opacity:0.915" fill="#92c8fe" d="M 19.5,94.5 C 21.9538,95.2271 24.2872,96.2271 26.5,97.5C 25.5701,101.4 25.2367,105.4 25.5,109.5C 22.9684,108.404 20.6351,107.071 18.5,105.5C 18.185,101.629 18.5184,97.9619 19.5,94.5 Z"/></g>
<g><path style="opacity:0.942" fill="#98c4fe" d="M 26.5,97.5 C 29.0316,98.5957 31.3649,99.9291 33.5,101.5C 32.5184,104.962 32.185,108.629 32.5,112.5C 30.0462,111.773 27.7128,110.773 25.5,109.5C 25.2367,105.4 25.5701,101.4 26.5,97.5 Z"/></g>
<g><path style="opacity:0.968" fill="#d293fd" d="M 105.5,95.5 C 105.5,99.5 105.5,103.5 105.5,107.5C 102.028,109.738 98.3617,111.738 94.5,113.5C 94.7633,109.4 94.4299,105.4 93.5,101.5C 97.5,99.5 101.5,97.5 105.5,95.5 Z"/></g>
<g><path style="opacity:0.933" fill="#ca99fd" d="M 93.5,101.5 C 94.4299,105.4 94.7633,109.4 94.5,113.5C 91.8333,114.833 89.1667,116.167 86.5,117.5C 86.5,113.5 86.5,109.5 86.5,105.5C 88.6351,103.929 90.9684,102.596 93.5,101.5 Z"/></g>
<g><path style="opacity:0.95" fill="#9fbefe" d="M 33.5,101.5 C 36.4848,102.326 39.1515,103.659 41.5,105.5C 41.815,109.371 41.4816,113.038 40.5,116.5C 37.5152,115.674 34.8485,114.341 32.5,112.5C 32.185,108.629 32.5184,104.962 33.5,101.5 Z"/></g>
<g><path style="opacity:0.884" fill="#a5b8fe" d="M 41.5,105.5 C 44.4848,106.326 47.1515,107.659 49.5,109.5C 48.5184,112.962 48.185,116.629 48.5,120.5C 45.5152,119.674 42.8485,118.341 40.5,116.5C 41.4816,113.038 41.815,109.371 41.5,105.5 Z"/></g>
<g><path style="opacity:0.95" fill="#c49ffd" d="M 86.5,105.5 C 86.5,109.5 86.5,113.5 86.5,117.5C 84.2872,118.773 81.9538,119.773 79.5,120.5C 78.5184,117.038 78.185,113.371 78.5,109.5C 80.8485,107.659 83.5152,106.326 86.5,105.5 Z"/></g>
<g><path style="opacity:0.941" fill="#abb4fe" d="M 49.5,109.5 C 51.8185,109.992 53.8185,110.992 55.5,112.5C 55.5,116.5 55.5,120.5 55.5,124.5C 52.9684,123.404 50.6351,122.071 48.5,120.5C 48.185,116.629 48.5184,112.962 49.5,109.5 Z"/></g>
<g><path style="opacity:0.937" fill="#bea4fd" d="M 78.5,109.5 C 78.185,113.371 78.5184,117.038 79.5,120.5C 77.8185,122.008 75.8185,123.008 73.5,123.5C 71.5864,120.316 70.9197,116.649 71.5,112.5C 73.7128,111.227 76.0462,110.227 78.5,109.5 Z"/></g>
<g><path style="opacity:0.956" fill="#b1affd" d="M 55.5,112.5 C 58.6223,113.561 61.6223,114.895 64.5,116.5C 64.5,120.167 64.5,123.833 64.5,127.5C 63.1667,127.5 61.8333,127.5 60.5,127.5C 59.0351,126.263 57.3684,125.263 55.5,124.5C 55.5,120.5 55.5,116.5 55.5,112.5 Z"/></g>
<g><path style="opacity:0.942" fill="#b8a9fd" d="M 71.5,112.5 C 70.9197,116.649 71.5864,120.316 73.5,123.5C 71.5,124.833 69.5,126.167 67.5,127.5C 66.5,127.5 65.5,127.5 64.5,127.5C 64.5,123.833 64.5,120.167 64.5,116.5C 66.6351,114.929 68.9684,113.596 71.5,112.5 Z"/></g>
</svg>
