<?xml version="1.0" encoding="UTF-8"?>
<!DOCTYPE svg PUBLIC "-//W3C//DTD SVG 1.1//EN" "http://www.w3.org/Graphics/SVG/1.1/DTD/svg11.dtd">
<svg xmlns="http://www.w3.org/2000/svg" version="1.1" width="128px" height="128px" style="shape-rendering:geometricPrecision; text-rendering:geometricPrecision; image-rendering:optimizeQuality; fill-rule:evenodd; clip-rule:evenodd" xmlns:xlink="http://www.w3.org/1999/xlink">
<g><path style="opacity:0.842" fill="#00e9d3" d="M 57.5,-0.5 C 61.5,-0.5 65.5,-0.5 69.5,-0.5C 76.1389,2.80554 81.1389,7.80554 84.5,14.5C 81.8333,14.5 79.1667,14.5 76.5,14.5C 67.8333,2.5 59.1667,2.5 50.5,14.5C 47.8333,14.5 45.1667,14.5 42.5,14.5C 45.8611,7.80554 50.8611,2.80554 57.5,-0.5 Z"/></g>
<g><path style="opacity:0.855" fill="#00e2d5" d="M 42.5,14.5 C 45.1667,14.5 47.8333,14.5 50.5,14.5C 49.3918,16.7815 48.0585,18.9481 46.5,21C 49.7177,21.9003 52.7177,23.067 55.5,24.5C 41.5,24.5 27.5,24.5 13.5,24.5C 16.2452,21.9624 19.5785,20.4624 23.5,20C 28.8333,19.6667 34.1667,19.3333 39.5,19C 40.8825,17.7292 41.8825,16.2292 42.5,14.5 Z"/></g>
<g><path style="opacity:0.853" fill="#00e2d5" d="M 76.5,14.5 C 79.1667,14.5 81.8333,14.5 84.5,14.5C 85.1175,16.2292 86.1175,17.7292 87.5,19C 95.3248,18.9667 102.991,19.9667 110.5,22C 111.571,22.8518 112.571,23.6851 113.5,24.5C 99.5,24.5 85.5,24.5 71.5,24.5C 74.2823,23.067 77.2823,21.9003 80.5,21C 78.9415,18.9481 77.6082,16.7815 76.5,14.5 Z"/></g>
<g><path style="opacity:0.841" fill="#00ddd7" d="M 13.5,24.5 C 27.5,24.5 41.5,24.5 55.5,24.5C 58.0284,25.0114 60.5284,25.6781 63,26.5C 65.8224,25.7245 68.6557,25.0579 71.5,24.5C 85.5,24.5 99.5,24.5 113.5,24.5C 118.174,27.5112 120.507,31.8445 120.5,37.5C 118.167,37.5 115.833,37.5 113.5,37.5C 112.428,31.9266 109.095,28.4266 103.5,27C 99.1794,26.501 94.8461,26.3343 90.5,26.5C 91.1667,30.1667 91.8333,33.8333 92.5,37.5C 90.5,37.5 88.5,37.5 86.5,37.5C 85.3898,34.1883 84.0564,30.855 82.5,27.5C 79.1609,28.6676 75.8276,29.8342 72.5,31C 75.5672,33.1882 78.5672,35.3548 81.5,37.5C 77.5,37.5 73.5,37.5 69.5,37.5C 67.2433,37.0383 65.2433,36.0383 63.5,34.5C 61.7567,36.0383 59.7567,37.0383 57.5,37.5C 53.5,37.5 49.5,37.5 45.5,37.5C 48.4328,35.3548 51.4328,33.1882 54.5,31C 51.129,29.9319 47.7957,28.7653 44.5,27.5C 42.9436,30.855 41.6102,34.1883 40.5,37.5C 38.5,37.5 36.5,37.5 34.5,37.5C 35.0078,33.8026 35.6745,30.1359 36.5,26.5C 31.0698,26.161 25.7364,26.661 20.5,28C 16.4034,29.9218 14.0701,33.0885 13.5,37.5C 11.1667,37.5 8.83333,37.5 6.5,37.5C 6.49272,31.8445 8.82605,27.5112 13.5,24.5 Z"/></g>
<g><path style="opacity:0.844" fill="#00d7d9" d="M 6.5,37.5 C 8.83333,37.5 11.1667,37.5 13.5,37.5C 13.5304,41.6179 14.1971,45.6179 15.5,49.5C 13.1667,49.5 10.8333,49.5 8.5,49.5C 7.00026,45.6742 6.33359,41.6742 6.5,37.5 Z"/></g>
<g><path style="opacity:0.858" fill="#00d7d9" d="M 34.5,37.5 C 36.5,37.5 38.5,37.5 40.5,37.5C 40.3691,38.3764 40.7025,39.0431 41.5,39.5C 42.6223,38.3698 43.9557,37.7031 45.5,37.5C 49.5,37.5 53.5,37.5 57.5,37.5C 51.2509,41.0744 45.2509,45.0744 39.5,49.5C 36.1667,49.5 32.8333,49.5 29.5,49.5C 32.3508,45.936 34.0175,41.936 34.5,37.5 Z"/></g>
<g><path style="opacity:0.855" fill="#00d7d9" d="M 69.5,37.5 C 73.5,37.5 77.5,37.5 81.5,37.5C 83.0443,37.7031 84.3777,38.3698 85.5,39.5C 86.2975,39.0431 86.6309,38.3764 86.5,37.5C 88.5,37.5 90.5,37.5 92.5,37.5C 92.9825,41.936 94.6492,45.936 97.5,49.5C 94.1667,49.5 90.8333,49.5 87.5,49.5C 81.7491,45.0744 75.7491,41.0744 69.5,37.5 Z"/></g>
<g><path style="opacity:0.848" fill="#00d7d9" d="M 113.5,37.5 C 115.833,37.5 118.167,37.5 120.5,37.5C 120.666,41.6742 120,45.6742 118.5,49.5C 116.167,49.5 113.833,49.5 111.5,49.5C 112.803,45.6179 113.47,41.6179 113.5,37.5 Z"/></g>
<g><path style="opacity:0.859" fill="#00d1dc" d="M 8.5,49.5 C 10.8333,49.5 13.1667,49.5 15.5,49.5C 17.0637,52.2743 18.897,54.941 21,57.5C 23.7028,54.6286 26.5361,51.9619 29.5,49.5C 32.8333,49.5 36.1667,49.5 39.5,49.5C 38.564,53.7352 38.2307,58.0685 38.5,62.5C 36.1667,62.5 33.8333,62.5 31.5,62.5C 31.6602,60.8008 31.4935,59.1341 31,57.5C 29.2962,59.3734 27.4628,61.0401 25.5,62.5C 22.1667,62.5 18.8333,62.5 15.5,62.5C 12.8998,58.299 10.5665,53.9656 8.5,49.5 Z"/></g>
<g><path style="opacity:0.864" fill="#00d1dc" d="M 87.5,49.5 C 90.8333,49.5 94.1667,49.5 97.5,49.5C 100.464,51.9619 103.297,54.6286 106,57.5C 108.103,54.941 109.936,52.2743 111.5,49.5C 113.833,49.5 116.167,49.5 118.5,49.5C 116.434,53.9656 114.1,58.299 111.5,62.5C 108.167,62.5 104.833,62.5 101.5,62.5C 99.5372,61.0401 97.7038,59.3734 96,57.5C 95.5065,59.1341 95.3398,60.8008 95.5,62.5C 93.1667,62.5 90.8333,62.5 88.5,62.5C 88.7693,58.0685 88.436,53.7352 87.5,49.5 Z"/></g>
<g><path style="opacity:0.914" fill="#00d1dc" d="M 75.5,64.5 C 73.1667,61.8333 70.8333,61.8333 68.5,64.5C 67.5502,58.5248 64.5502,57.1915 59.5,60.5C 58.7542,61.7362 58.4208,63.0695 58.5,64.5C 56.8863,62.9254 54.8863,62.2587 52.5,62.5C 52.5,63.5 52.5,64.5 52.5,65.5C 51.4291,57.5303 55.0958,52.8636 63.5,51.5C 71.0134,52.6772 75.0134,57.0105 75.5,64.5 Z"/></g>
<g><path style="opacity:0.854" fill="#00cade" d="M 15.5,62.5 C 18.8333,62.5 22.1667,62.5 25.5,62.5C 26.713,65.2254 28.5464,67.5588 31,69.5C 31.4966,67.1902 31.6633,64.8568 31.5,62.5C 33.8333,62.5 36.1667,62.5 38.5,62.5C 38.5,67.1667 38.5,71.8333 38.5,76.5C 35.1667,76.5 31.8333,76.5 28.5,76.5C 25.8697,74.3719 23.3697,72.0386 21,69.5C 18.9906,71.522 17.4906,73.8554 16.5,76.5C 13.8333,76.5 11.1667,76.5 8.5,76.5C 11.3794,72.0745 13.7127,67.4079 15.5,62.5 Z"/></g>
<g><path style="opacity:0.891" fill="#00ccdf" d="M 58.5,64.5 C 61.8333,69.8333 65.1667,69.8333 68.5,64.5C 70.8333,61.8333 73.1667,61.8333 75.5,64.5C 73.0141,74.1353 67.0141,77.302 57.5,74C 54.2882,71.9806 52.6216,69.1473 52.5,65.5C 52.5,64.5 52.5,63.5 52.5,62.5C 54.8863,62.2587 56.8863,62.9254 58.5,64.5 Z"/></g>
<g><path style="opacity:0.864" fill="#00cade" d="M 88.5,62.5 C 90.8333,62.5 93.1667,62.5 95.5,62.5C 95.3367,64.8568 95.5034,67.1902 96,69.5C 98.4536,67.5588 100.287,65.2254 101.5,62.5C 104.833,62.5 108.167,62.5 111.5,62.5C 113.476,67.1256 115.476,71.7923 117.5,76.5C 115.167,76.5 112.833,76.5 110.5,76.5C 109.509,73.8554 108.009,71.522 106,69.5C 103.63,72.0386 101.13,74.3719 98.5,76.5C 95.1667,76.5 91.8333,76.5 88.5,76.5C 88.5,71.8333 88.5,67.1667 88.5,62.5 Z"/></g>
<g><path style="opacity:0.847" fill="#00c4e1" d="M 8.5,76.5 C 11.1667,76.5 13.8333,76.5 16.5,76.5C 14.1191,80.4809 13.1191,84.8143 13.5,89.5C 11.1667,89.5 8.83333,89.5 6.5,89.5C 6.42299,85.038 7.08966,80.7047 8.5,76.5 Z"/></g>
<g><path style="opacity:0.863" fill="#00c3e1" d="M 28.5,76.5 C 31.8333,76.5 35.1667,76.5 38.5,76.5C 44.582,81.2569 50.9153,85.5903 57.5,89.5C 53.5,89.5 49.5,89.5 45.5,89.5C 43.9557,89.2969 42.6223,88.6302 41.5,87.5C 40.7025,87.9569 40.3691,88.6236 40.5,89.5C 38.5,89.5 36.5,89.5 34.5,89.5C 34.0521,84.5064 32.0521,80.173 28.5,76.5 Z"/></g>
<g><path style="opacity:0.866" fill="#00c3e1" d="M 88.5,76.5 C 91.8333,76.5 95.1667,76.5 98.5,76.5C 94.9479,80.173 92.9479,84.5064 92.5,89.5C 90.5,89.5 88.5,89.5 86.5,89.5C 86.6309,88.6236 86.2975,87.9569 85.5,87.5C 84.3777,88.6302 83.0443,89.2969 81.5,89.5C 77.8333,89.5 74.1667,89.5 70.5,89.5C 76.4765,85.1987 82.4765,80.8653 88.5,76.5 Z"/></g>
<g><path style="opacity:0.829" fill="#00c4e1" d="M 110.5,76.5 C 112.833,76.5 115.167,76.5 117.5,76.5C 119.876,80.3934 120.876,84.7268 120.5,89.5C 118.167,89.5 115.833,89.5 113.5,89.5C 113.594,84.8792 112.594,80.5459 110.5,76.5 Z"/></g>
<g><path style="opacity:0.827" fill="#00bee3" d="M 6.5,89.5 C 8.83333,89.5 11.1667,89.5 13.5,89.5C 14.0701,93.9115 16.4034,97.0782 20.5,99C 25.7364,100.339 31.0698,100.839 36.5,100.5C 35.6745,96.8641 35.0078,93.1974 34.5,89.5C 36.5,89.5 38.5,89.5 40.5,89.5C 41.6102,92.8117 42.9436,96.145 44.5,99.5C 47.7957,98.2347 51.129,97.0681 54.5,96C 51.4328,93.8118 48.4328,91.6452 45.5,89.5C 49.5,89.5 53.5,89.5 57.5,89.5C 59.7567,89.9617 61.7567,90.9617 63.5,92.5C 65.7388,91.2122 68.0721,90.2122 70.5,89.5C 74.1667,89.5 77.8333,89.5 81.5,89.5C 78.5672,91.6452 75.5672,93.8118 72.5,96C 75.8276,97.1658 79.1609,98.3324 82.5,99.5C 84.0564,96.145 85.3898,92.8117 86.5,89.5C 88.5,89.5 90.5,89.5 92.5,89.5C 91.9922,93.1974 91.3255,96.8641 90.5,100.5C 98.7792,102.001 105.946,100.001 112,94.5C 113.009,92.9751 113.509,91.3084 113.5,89.5C 115.833,89.5 118.167,89.5 120.5,89.5C 120.58,94.6213 118.58,98.6213 114.5,101.5C 99.1667,101.5 83.8333,101.5 68.5,101.5C 65.1858,100.293 61.8525,100.293 58.5,101.5C 43.1667,101.5 27.8333,101.5 12.5,101.5C 8.41971,98.6213 6.41971,94.6213 6.5,89.5 Z"/></g>
<g><path style="opacity:0.866" fill="#00b9e4" d="M 12.5,101.5 C 27.8333,101.5 43.1667,101.5 58.5,101.5C 54.7152,103.266 50.7152,104.766 46.5,106C 48.568,108.642 50.2347,111.475 51.5,114.5C 48.8333,114.5 46.1667,114.5 43.5,114.5C 42.554,112.11 41.2206,109.944 39.5,108C 31.6752,108.033 24.0086,107.033 16.5,105C 14.9069,104.051 13.5736,102.885 12.5,101.5 Z"/></g>
<g><path style="opacity:0.866" fill="#00b9e4" d="M 68.5,101.5 C 83.8333,101.5 99.1667,101.5 114.5,101.5C 111.443,104.362 107.776,106.195 103.5,107C 98.1667,107.333 92.8333,107.667 87.5,108C 85.7794,109.944 84.446,112.11 83.5,114.5C 80.8333,114.5 78.1667,114.5 75.5,114.5C 76.7653,111.475 78.432,108.642 80.5,106C 76.2848,104.766 72.2848,103.266 68.5,101.5 Z"/></g>
<g><path style="opacity:0.853" fill="#00b2e7" d="M 43.5,114.5 C 46.1667,114.5 48.8333,114.5 51.5,114.5C 54.8859,117.861 58.8859,120.194 63.5,121.5C 68.1141,120.194 72.1141,117.861 75.5,114.5C 78.1667,114.5 80.8333,114.5 83.5,114.5C 80.0883,120.247 75.4216,124.581 69.5,127.5C 65.5,127.5 61.5,127.5 57.5,127.5C 51.5784,124.581 46.9117,120.247 43.5,114.5 Z"/></g>
</svg>
